<svg width="37" height="34" viewBox="0 0 37 34" fill="none" xmlns="http://www.w3.org/2000/svg">
<path d="M23.099 15.6229C22.85 15.6219 22.6036 15.6704 22.3755 15.7653C22.1473 15.8601 21.9425 15.9992 21.7742 16.1736C21.6059 16.3481 21.4777 16.554 21.398 16.7783C21.3182 17.0025 21.2886 17.2401 21.311 17.4759H24.9944C25.0182 17.2313 24.9859 16.9847 24.8998 16.7531C24.8138 16.5214 24.6759 16.3103 24.4958 16.1342C24.3156 15.9581 24.0975 15.8212 23.8564 15.7329C23.6153 15.6446 23.3569 15.6071 23.099 15.6229Z" fill="white" fill-opacity="0.5"/>
<path d="M13.6761 17.51H11.4768V20.808H13.2649C15.0529 20.808 15.8397 20.247 15.8397 19.108C15.8397 17.969 15.0172 17.51 13.6761 17.51Z" fill="white" fill-opacity="0.5"/>
<path d="M15.2317 14.4839C15.2317 13.5829 14.6059 13.0389 13.5331 13.0389H11.4768V15.9969H12.9967C14.588 15.9969 15.2317 15.4529 15.2317 14.4839Z" fill="white" fill-opacity="0.5"/>
<path d="M18.1641 0C14.6276 0 11.1706 0.997032 8.23014 2.86502C5.28968 4.733 2.99788 7.38804 1.64454 10.4944C0.291195 13.6007 -0.0629014 17.0189 0.627027 20.3165C1.31695 23.6142 3.01992 26.6433 5.52057 29.0208C8.02122 31.3983 11.2072 33.0174 14.6757 33.6733C18.1443 34.3293 21.7394 33.9926 25.0067 32.7059C28.274 31.4193 31.0665 29.2403 33.0313 26.4447C34.996 23.6491 36.0447 20.3623 36.0447 17C36.0447 14.7675 35.5822 12.5569 34.6836 10.4944C33.785 8.43184 32.468 6.55778 30.8076 4.97918C29.1472 3.40059 27.1761 2.14838 25.0067 1.29405C22.8373 0.439718 20.5122 0 18.1641 0ZM14.0515 22.44H9.22377V11.39H14.0515C16.1436 11.39 17.5204 12.427 17.5204 14.11C17.5451 14.6754 17.357 15.2307 16.99 15.6762C16.623 16.1217 16.101 16.4283 15.5178 16.541C15.8874 16.5491 16.2514 16.6289 16.5875 16.7754C16.9236 16.9219 17.2248 17.1321 17.4725 17.3931C17.7202 17.6541 17.9093 17.9604 18.0282 18.2933C18.1471 18.6261 18.1934 18.9786 18.1641 19.329C18.1641 21.301 16.376 22.44 14.0515 22.44ZM20.3992 12.24H25.7634V13.09H20.3992V12.24ZM27.1044 18.785H21.2038V19.023C21.173 19.2813 21.2009 19.5429 21.2855 19.7901C21.37 20.0374 21.5094 20.2645 21.694 20.4562C21.8787 20.6479 22.1045 20.7997 22.3561 20.9015C22.6078 21.0032 22.8794 21.0525 23.1528 21.046C23.5366 21.1027 23.929 21.0255 24.2576 20.8287C24.5863 20.6318 24.8289 20.3286 24.9408 19.975H27.1044C26.9117 20.791 26.4095 21.5109 25.6937 21.997C24.9779 22.4832 24.0987 22.7014 23.2243 22.61C22.6655 22.6637 22.101 22.6002 21.5707 22.4242C21.0404 22.2481 20.5572 21.9637 20.1549 21.591C19.7526 21.2183 19.4412 20.7663 19.2424 20.2668C19.0437 19.7673 18.9624 19.2325 19.0045 18.7V17.952C18.9665 17.436 19.0464 16.9183 19.2386 16.4344C19.4308 15.9505 19.7308 15.5118 20.118 15.1485C20.5053 14.7852 20.9706 14.5058 21.4821 14.3294C21.9935 14.1531 22.5391 14.0841 23.0813 14.127C23.6216 14.0941 24.1632 14.1716 24.6694 14.3543C25.1757 14.5371 25.6348 14.8209 26.016 15.1865C26.3972 15.5521 26.6916 15.9912 26.8793 16.4741C27.0671 16.957 27.1438 17.4725 27.1044 17.986V18.785Z" fill="white" fill-opacity="0.5"/>
</svg>
