<svg width="69" height="80" viewBox="0 0 69 80" fill="none" xmlns="http://www.w3.org/2000/svg">
<path fill-rule="evenodd" clip-rule="evenodd" d="M0.786377 0.292969L6.91817 71.834L34.4349 79.7802L62.0267 71.8222L68.165 0.292969H0.786377ZM56.8001 67.3212L34.5323 73.6937L34.5323 64.588L34.4653 64.6044L17.1579 59.6194L15.9763 45.8519H24.4439L25.0586 52.8402L34.4672 55.4686L34.5323 55.4585L34.5323 6.25085H62.0174L56.8001 67.3212ZM14.822 32.5347L15.5606 41.296L34.5322 41.296V32.5347V23.7591L14.822 32.5347ZM34.5321 23.153V14.3917H34.4465H13.3243L14.0717 23.153H34.5321Z" fill="#7B4AE2" fill-opacity="0.8"/>
<path fill-rule="evenodd" clip-rule="evenodd" d="M35.8918 23.153L34.5322 23.7591V32.5347L34.5323 32.5346V41.2959H44.8332L43.897 52.7507L34.5323 55.466V64.5948L51.7823 59.6097L54.0538 32.5346H34.5323L54.8194 23.153L55.5439 14.3917H34.5322V23.0432V23.153H35.8918Z" fill="#7B4AE2" fill-opacity="0.8"/>
</svg>
