<svg width="40" height="31" viewBox="0 0 40 31" fill="none" xmlns="http://www.w3.org/2000/svg">
<path d="M2.5 9.5282H16.25" stroke="#7B4AE2" stroke-linecap="round" stroke-linejoin="round"/>
<path d="M23.75 9.5282H37.5" stroke="#7B4AE2" stroke-linecap="round" stroke-linejoin="round"/>
<path d="M20 12.3867C22.0711 12.3867 23.75 11.107 23.75 9.52827C23.75 7.94958 22.0711 6.6698 20 6.6698C17.9289 6.6698 16.25 7.94958 16.25 9.52827C16.25 11.107 17.9289 12.3867 20 12.3867Z" stroke="#7B4AE2" stroke-linecap="round" stroke-linejoin="round"/>
<path d="M6.25 23.8206C8.32107 23.8206 10 22.5408 10 20.9621C10 19.3834 8.32107 18.1036 6.25 18.1036C4.17893 18.1036 2.5 19.3834 2.5 20.9621C2.5 22.5408 4.17893 23.8206 6.25 23.8206Z" stroke="#7B4AE2" stroke-linecap="round" stroke-linejoin="round"/>
<path d="M33.75 23.8206C35.8211 23.8206 37.5 22.5408 37.5 20.9621C37.5 19.3834 35.8211 18.1036 33.75 18.1036C31.6789 18.1036 30 19.3834 30 20.9621C30 22.5408 31.6789 23.8206 33.75 23.8206Z" stroke="#7B4AE2" stroke-linecap="round" stroke-linejoin="round"/>
<path d="M23.7188 9.92126C26.1934 10.4508 28.4241 11.4979 30.1583 12.944C31.8925 14.3902 33.0609 16.1775 33.5312 18.1036" stroke="#7B4AE2" stroke-linecap="round" stroke-linejoin="round"/>
<path d="M6.46875 18.1036C6.93908 16.1775 8.10749 14.3902 9.84169 12.944C11.5759 11.4979 13.8066 10.4508 16.2812 9.92126" stroke="#7B4AE2" stroke-linecap="round" stroke-linejoin="round"/>
<circle cx="18.5" cy="17.5" r="12.5" fill="#7B4AE2" fill-opacity="0.2"/>
</svg>
