<svg width="78" height="80" viewBox="0 0 78 80" fill="none" xmlns="http://www.w3.org/2000/svg">
<g clip-path="url(#clip0_6_559)">
<path fill-rule="evenodd" clip-rule="evenodd" d="M26.2336 0.260925C19.2037 0.260925 13.4983 6.19597 13.4983 13.5088C13.4983 20.8216 19.2037 26.7567 26.2336 26.7567C19.2037 26.7567 13.4983 32.6917 13.4983 40.0045C13.4983 47.3173 19.2037 53.2524 26.2336 53.2524C19.2037 53.2524 13.4983 59.1874 13.4983 66.5003C13.4983 73.8131 19.2037 79.7481 26.2336 79.7481C33.2634 79.7481 38.9688 73.8131 38.9688 66.5003L38.9688 40.0045C38.9688 47.3173 44.6742 53.2524 51.7041 53.2524C58.734 53.2524 64.4394 47.3173 64.4394 40.0045C64.4394 32.6917 58.734 26.7567 51.7041 26.7567C58.734 26.7567 64.4394 20.8216 64.4394 13.5088C64.4394 6.19597 58.734 0.260925 51.7041 0.260925H26.2336ZM51.7041 26.7567H38.9688L38.9688 40.0045C38.9688 32.6917 44.6742 26.7567 51.7041 26.7567Z" fill="#7B4AE2" fill-opacity="0.8"/>
</g>
<defs>
<clipPath id="clip0_6_559">
<rect width="76.4116" height="79.4872" fill="white" transform="translate(0.663574 0.260925)"/>
</clipPath>
</defs>
</svg>
