<svg width="36" height="38" viewBox="0 0 36 38" fill="none" xmlns="http://www.w3.org/2000/svg">
<g clip-path="url(#clip0_6_812)">
<path fill-rule="evenodd" clip-rule="evenodd" d="M11.9224 0.372314C8.71336 0.372314 6.10889 3.15639 6.10889 6.58676C6.10889 10.0171 8.71336 12.8012 11.9224 12.8012C8.71336 12.8012 6.10889 15.5853 6.10889 19.0157C6.10889 22.446 8.71336 25.2301 11.9224 25.2301C8.71336 25.2301 6.10889 28.0142 6.10889 31.4445C6.10889 34.8749 8.71336 37.659 11.9224 37.659C15.1315 37.659 17.736 34.8749 17.736 31.4445L17.736 19.0157C17.736 22.446 20.3405 25.2301 23.5495 25.2301C26.7586 25.2301 29.3631 22.446 29.3631 19.0157C29.3631 15.5853 26.7586 12.8012 23.5495 12.8012C26.7586 12.8012 29.3631 10.0171 29.3631 6.58676C29.3631 3.15639 26.7586 0.372314 23.5495 0.372314H11.9224ZM23.5495 12.8012H17.736L17.736 19.0157C17.736 15.5853 20.3405 12.8012 23.5495 12.8012Z" fill="#7B4AE2" fill-opacity="0.5"/>
</g>
<defs>
<clipPath id="clip0_6_812">
<rect width="34.8813" height="37.2867" fill="white" transform="translate(0.25 0.372314)"/>
</clipPath>
</defs>
</svg>
