<svg width="78" height="80" viewBox="0 0 78 80" fill="none" xmlns="http://www.w3.org/2000/svg">
<path fill-rule="evenodd" clip-rule="evenodd" d="M75.8703 36.4635L42.5072 1.76017C40.5872 -0.238824 37.4708 -0.238824 35.5483 1.76017L28.6205 8.96686L37.4088 18.1089C39.4511 17.3911 41.7928 17.8725 43.421 19.5663C45.0568 21.2705 45.5162 23.7273 44.8095 25.8589L53.2791 34.6695C55.3282 33.9351 57.6926 34.4105 59.3292 36.1155C61.6164 38.4939 61.6164 42.3489 59.3292 44.729C57.0411 47.1092 53.3353 47.1092 51.0464 44.729C49.326 42.9376 48.9009 40.3089 49.772 38.1041L41.8733 29.8874L41.8725 51.5101C42.43 51.7979 42.9566 52.1808 43.421 52.6622C45.7082 55.0406 45.7082 58.8956 43.421 61.2774C41.133 63.6567 37.4255 63.6567 35.1408 61.2774C32.8536 58.8956 32.8536 55.0406 35.1408 52.6622C35.7059 52.0753 36.3599 51.6313 37.0575 51.333V29.5089C36.3599 29.2124 35.7068 28.7711 35.1408 28.1797C33.4078 26.3796 32.9911 23.7343 33.879 21.5208L25.2165 12.5078L2.3403 36.3031C0.417815 38.3038 0.417815 41.5456 2.3403 43.5446L35.7034 78.2489C37.6242 80.2479 40.7398 80.2479 42.6631 78.2489L75.8703 43.706C77.7919 41.7061 77.7919 38.4625 75.8703 36.4635Z" fill="#7B4AE2" fill-opacity="0.8"/>
</svg>
