<svg width="40" height="38" viewBox="0 0 40 38" fill="none" xmlns="http://www.w3.org/2000/svg">
<path fill-rule="evenodd" clip-rule="evenodd" d="M19.9241 0C8.91605 0 0 8.71756 0 19.4806C0 28.1007 5.70328 35.3816 13.6231 37.9628C14.6193 38.1332 14.9929 37.5488 14.9929 37.0375C14.9929 36.5748 14.968 35.0407 14.968 33.4092C9.96207 34.3102 8.667 32.216 8.26852 31.1202C8.04437 30.5602 7.07307 28.8313 6.22629 28.3686C5.52895 28.0033 4.53274 27.1024 6.20139 27.078C7.77041 27.0537 8.89114 28.4904 9.26472 29.0748C11.0579 32.0212 13.922 31.1933 15.0676 30.6819C15.242 29.4157 15.765 28.5634 16.3378 28.0764C11.9047 27.5894 7.27231 25.9092 7.27231 18.4579C7.27231 16.3393 8.04437 14.5861 9.31453 13.2224C9.11529 12.7354 8.41795 10.7387 9.51377 8.06009C9.51377 8.06009 11.1824 7.54873 14.9929 10.0569C16.5868 9.61854 18.2804 9.39938 19.9739 9.39938C21.6675 9.39938 23.361 9.61854 24.955 10.0569C28.7655 7.52437 30.4341 8.06009 30.4341 8.06009C31.5299 10.7387 30.8326 12.7354 30.6334 13.2224C31.9035 14.5861 32.6756 16.315 32.6756 18.4579C32.6756 25.9335 28.0183 27.5894 23.5852 28.0764C24.3074 28.6852 24.9301 29.854 24.9301 31.6803C24.9301 34.2858 24.9052 36.38 24.9052 37.0375C24.9052 37.5488 25.2787 38.1576 26.275 37.9628C34.145 35.3816 39.8483 28.0764 39.8483 19.4806C39.8483 8.71756 30.9322 0 19.9241 0Z" fill="white" fill-opacity="0.5"/>
</svg>
