<svg width="77" height="80" viewBox="0 0 77 80" fill="none" xmlns="http://www.w3.org/2000/svg">
<path fill-rule="evenodd" clip-rule="evenodd" d="M38.4872 2.1239C17.8838 2.1239 1.17651 19.5004 1.17651 40.9363C1.17651 58.0847 11.8672 72.6332 26.6918 77.7653C28.5565 78.1246 29.2411 76.9234 29.2411 75.8982C29.2411 74.9727 29.2065 71.9153 29.1904 68.6721C18.8105 71.02 16.6203 64.0928 16.6203 64.0928C14.923 59.6066 12.4776 58.4137 12.4776 58.4137C9.09239 56.0048 12.7328 56.0543 12.7328 56.0543C16.4794 56.3281 18.4522 60.054 18.4522 60.054C21.7799 65.9875 27.1805 64.2721 29.3096 63.2804C29.6445 60.7719 30.6115 59.0597 31.6785 58.0905C23.3913 57.109 14.6796 53.781 14.6796 38.9092C14.6796 34.6718 16.1371 31.2094 18.5239 28.4914C18.1365 27.5138 16.8594 23.5662 18.8853 18.2201C18.8853 18.2201 22.0184 17.177 29.1484 22.1985C32.1246 21.3386 35.3164 20.9073 38.4872 20.8925C41.658 20.9073 44.8523 21.3386 47.834 22.1985C54.9553 17.177 58.0841 18.2201 58.0841 18.2201C60.115 23.5662 58.8373 27.5138 58.4499 28.4914C60.8422 31.2094 62.2898 34.6718 62.2898 38.9092C62.2898 53.8164 53.5615 57.0987 45.2532 58.0596C46.5915 59.2641 47.784 61.626 47.784 65.2471C47.784 70.4403 47.7407 74.6199 47.7407 75.8982C47.7407 76.9311 48.4123 78.1413 50.3035 77.7602C65.1202 72.6223 75.7972 58.0789 75.7972 40.9363C75.7972 19.5004 59.0924 2.1239 38.4872 2.1239ZM15.1506 57.413C15.0684 57.6058 14.7768 57.6637 14.5111 57.5313C14.2405 57.4047 14.0885 57.1418 14.1762 56.9483C14.2565 56.7497 14.5488 56.6945 14.8188 56.8275C15.09 56.9541 15.2445 57.2196 15.1506 57.413ZM16.9858 59.1165C16.8079 59.2881 16.4601 59.2084 16.224 58.9372C15.98 58.6666 15.9343 58.3048 16.1147 58.1306C16.2982 57.959 16.6355 58.0393 16.8802 58.3099C17.1242 58.5837 17.1718 58.943 16.9858 59.1165ZM18.2449 61.2961C18.0163 61.4613 17.6425 61.3064 17.4114 60.9612C17.1828 60.6161 17.1828 60.2022 17.4164 60.0364C17.6481 59.8705 18.0163 60.0196 18.2505 60.3622C18.4785 60.7131 18.4785 61.127 18.2449 61.2961ZM20.3743 63.8203C20.1697 64.0549 19.7342 63.9919 19.4154 63.6719C19.0891 63.3589 18.9983 62.9147 19.2034 62.6802C19.4104 62.4449 19.8485 62.5111 20.1697 62.8286C20.4935 63.141 20.5924 63.5883 20.3743 63.8203ZM23.1262 64.6725C23.036 64.9765 22.6165 65.1147 22.1939 64.9855C21.7719 64.8525 21.4957 64.4964 21.581 64.1892C21.6687 63.8832 22.0901 63.7393 22.5158 63.8775C22.9372 64.0099 23.214 64.3633 23.1262 64.6725ZM26.2581 65.034C26.2686 65.354 25.9102 65.6195 25.4666 65.6253C25.0205 65.6355 24.6597 65.3765 24.6548 65.0616C24.6548 64.7383 25.0051 64.4754 25.4512 64.4677C25.8948 64.4587 26.2581 64.7158 26.2581 65.034ZM29.3348 64.9113C29.3879 65.2236 29.0796 65.5444 28.6391 65.6298C28.206 65.7121 27.805 65.5193 27.75 65.2095C27.6963 64.8894 28.0101 64.5687 28.4426 64.4858C28.8838 64.4061 29.2786 64.5938 29.3348 64.9113Z" fill="#7B4AE2" fill-opacity="0.8"/>
</svg>
