<svg width="77" height="80" viewBox="0 0 77 80" fill="none" xmlns="http://www.w3.org/2000/svg">
<g clip-path="url(#clip0_6_544)">
<path d="M38.1703 78.7393L11.5927 71.0643L5.61281 1.29297H70.8098L64.8236 71.0528L38.1703 78.7393Z" stroke="#7B4AE2" stroke-opacity="0.8" stroke-width="2"/>
<path fill-rule="evenodd" clip-rule="evenodd" d="M55.4739 59.6145L55.6008 58.1321L57.5829 35.0323L57.7887 32.6762H27.05L26.2792 23.6913H38.1968H58.5291L58.7254 21.719L59.1097 17.2709L59.3114 14.9169H38.1968H17.061L17.2629 17.2709L19.336 41.4504H38.2114H48.5687L47.5896 52.8299L38.2099 55.4635L28.7806 52.8355L28.1801 45.8376H23.6154H19.7129L20.8946 59.6145L38.1726 64.604L55.4739 59.6145Z" fill="#7B4AE2" fill-opacity="0.8"/>
</g>
<defs>
<clipPath id="clip0_6_544">
<rect width="76.4116" height="79.4872" fill="white" transform="translate(0.0461426 0.292969)"/>
</clipPath>
</defs>
</svg>
