<svg width="40" height="39" viewBox="0 0 40 39" fill="none" xmlns="http://www.w3.org/2000/svg">
<path d="M19.6835 0.518921C30.4057 0.518921 39.0968 9.02617 39.0968 19.519C39.0968 30.0118 30.4057 38.5189 19.6835 38.5189C8.96121 38.5189 0.270264 30.0117 0.270264 19.519C0.270264 9.0263 8.96134 0.518921 19.6835 0.518921Z" fill="white" fill-opacity="0.5"/>
<path d="M11.2096 26.6249H14.8448V14.7665H11.2096V26.6249ZM25.3717 14.3557C23.6075 14.3557 22.0289 14.9863 20.9091 16.3781V14.7275H17.2606V26.625H20.9091V20.1911C20.9091 18.8314 22.1819 17.5049 23.7762 17.5049C25.3705 17.5049 25.7636 18.8314 25.7636 20.1579V26.6238H29.3988V19.8931C29.3987 15.2178 27.1371 14.3557 25.3717 14.3557ZM13.0102 13.5814C14.0149 13.5814 14.8303 12.7834 14.8303 11.8001C14.8303 10.8168 14.0149 10.0189 13.0102 10.0189C12.0056 10.0189 11.1902 10.817 11.1902 11.8002C11.1902 12.7835 12.0056 13.5814 13.0102 13.5814Z" fill="#090E16"/>
</svg>
