<svg width="77" height="80" viewBox="0 0 77 80" fill="none" xmlns="http://www.w3.org/2000/svg">
<path fill-rule="evenodd" clip-rule="evenodd" d="M1.06445 9.22446C1.06445 4.80618 4.64618 1.22446 9.06446 1.22446H67.6852C72.1034 1.22446 75.6852 4.80617 75.6852 9.22445V70.8487C75.6852 75.2669 72.1034 78.8487 67.6852 78.8487H9.06445C4.64618 78.8487 1.06445 75.267 1.06445 70.8487V9.22446ZM20.6849 66.0928C20.6849 66.0929 20.685 66.0929 20.685 66.0929L20.6851 66.0928C22.3381 69.7398 25.5943 72.7618 31.2038 72.7618C37.4152 72.7618 41.6726 69.3228 41.6726 61.7674V40.3677C41.6726 38.4313 40.1028 36.8615 38.1663 36.8615C36.2299 36.8615 34.6601 38.4313 34.6601 40.3677V61.6643C34.6601 65.3114 33.2074 66.249 30.9031 66.249C27.5306 66.249 23.9783 64.0196 21.1243 65.8164L20.6851 66.0928L20.6851 66.0928C20.685 66.0927 20.6849 66.0927 20.6849 66.0928ZM51.9909 63.0946C51.5146 62.4462 50.629 62.211 49.9398 62.626L45.4816 65.3112C45.4816 65.3112 45.4816 65.3112 45.4816 65.3112C45.4817 65.3112 45.4817 65.3112 45.4817 65.3113C47.535 69.532 51.7427 72.7624 58.2544 72.7624C64.9162 72.7624 69.8751 69.1674 69.8751 62.6017C69.8751 56.5055 66.5189 53.7962 60.5581 51.1387L58.8051 50.3571C55.8 49.0023 54.4976 48.1162 54.4976 45.9277C54.4976 44.1564 55.8 42.8017 57.8538 42.8017C58.6787 42.8017 59.3848 42.9519 60.0138 43.2849C61.7132 44.1846 63.7456 45.0031 65.3445 43.9351C66.7467 42.9983 67.2497 41.0977 66.1376 39.8301C64.022 37.4185 61.3154 36.4444 57.8537 36.4444C51.5921 36.4444 47.585 40.6131 47.585 46.0842C47.585 52.0244 50.9412 54.8381 56.0006 57.0783L57.7532 57.8604C60.9591 59.3189 62.8624 60.2048 62.8624 62.7059C62.8624 64.7902 61.0095 66.3014 58.1039 66.3014C55.2277 66.3014 53.3922 65.0023 51.9909 63.0946Z" fill="#7B4AE2" fill-opacity="0.8"/>
</svg>
