<svg width="37" height="31" viewBox="0 0 37 31" fill="none" xmlns="http://www.w3.org/2000/svg">
<path d="M0.834344 16.2728L5.01425 13.6095C5.98291 12.9925 7.40667 13.1076 8.19403 13.8664C8.98176 14.6255 8.83486 15.7413 7.8662 16.3583L5.84341 17.6471L20.5299 27.3446C21.4985 27.9616 21.6454 29.0774 20.8577 29.8362C20.4111 30.2671 19.7595 30.4903 19.1028 30.4903C18.6018 30.4903 18.0971 30.3604 17.6783 30.0934L0.834344 19.0215C0.306723 18.6852 0 18.1804 0 17.6471C0 17.1139 0.306723 16.6094 0.834344 16.2728Z" fill="white"/>
<path d="M19.3953 5.58597e-05C20.5952 0.00759465 21.5605 0.775977 21.5509 1.71659L21.364 28.8009C21.3544 29.7415 20.3736 30.4977 19.1736 30.4901C18.8695 30.4884 18.5809 30.4376 18.3189 30.3477C17.5475 30.0824 17.0106 29.4761 17.0176 28.7736L17.2049 1.68962C17.2145 0.749006 18.195 -0.00748293 19.3953 5.58597e-05Z" fill="white"/>
<path d="M28.9345 18.6308L30.4781 17.6473L24.9799 14.1438C24.0112 13.5267 23.8647 12.411 24.6521 11.6522C25.4394 10.8928 26.8632 10.778 27.8319 11.395L35.4868 16.2729C36.0148 16.6095 36.3212 17.114 36.3212 17.6473C36.3212 18.1805 36.0148 18.6853 35.4868 19.0216L31.7864 21.3796C31.3672 21.6466 30.8629 21.7765 30.3619 21.7765C29.7048 21.7765 29.0532 21.5532 28.6066 21.1226C27.8193 20.3636 27.9662 19.2481 28.9345 18.6308Z" fill="#8D6ECE"/>
</svg>
