<svg width="40" height="31" viewBox="0 0 40 31" fill="none" xmlns="http://www.w3.org/2000/svg">
<circle cx="16.5" cy="16.5" r="12.5" fill="#7B4AE2" fill-opacity="0.2"/>
<path d="M34.6251 17.794C34.8843 16.9267 35.0101 16.0394 35.0001 15.1499C34.9376 8.84937 28.0938 3.75176 19.8438 3.81131C16.3193 3.83964 12.9205 4.81313 10.2437 6.56098C7.56683 8.30883 5.78294 10.7194 5.205 13.3697C4.62706 16.0201 5.29198 18.7409 7.08311 21.0549C8.87423 23.3688 11.6771 25.1281 15.0001 26.024C15.5653 26.1792 16.1714 26.2282 16.7668 26.1668C17.3621 26.1053 17.9293 25.9353 18.42 25.6711C18.9108 25.4069 19.3107 25.0563 19.5858 24.6492C19.8608 24.242 20.003 23.7903 20.0001 23.3323V22.8678C19.998 22.492 20.0936 22.1196 20.2813 21.772C20.469 21.4245 20.7452 21.1088 21.0938 20.843C21.4424 20.5773 21.8567 20.3668 22.3126 20.2237C22.7685 20.0806 23.257 20.0077 23.7501 20.0093H30.9688C31.8171 20.0097 32.6406 19.7909 33.3046 19.3885C33.9687 18.9862 34.4342 18.4241 34.6251 17.794V17.794Z" stroke="#7B4AE2" stroke-linecap="round" stroke-linejoin="round"/>
<path d="M20 10.0046C20.6904 10.0046 21.25 9.57805 21.25 9.05182C21.25 8.52559 20.6904 8.099 20 8.099C19.3096 8.099 18.75 8.52559 18.75 9.05182C18.75 9.57805 19.3096 10.0046 20 10.0046Z" fill="#7B4AE2"/>
<path d="M12.9688 13.1013C13.6591 13.1013 14.2188 12.6747 14.2188 12.1485C14.2188 11.6223 13.6591 11.1957 12.9688 11.1957C12.2784 11.1957 11.7188 11.6223 11.7188 12.1485C11.7188 12.6747 12.2784 13.1013 12.9688 13.1013Z" fill="#7B4AE2"/>
<path d="M12.9688 19.2947C13.6591 19.2947 14.2188 18.8681 14.2188 18.3419C14.2188 17.8156 13.6591 17.389 12.9688 17.389C12.2784 17.389 11.7188 17.8156 11.7188 18.3419C11.7188 18.8681 12.2784 19.2947 12.9688 19.2947Z" fill="#7B4AE2"/>
<path d="M27.0312 13.1013C27.7216 13.1013 28.2812 12.6747 28.2812 12.1485C28.2812 11.6223 27.7216 11.1957 27.0312 11.1957C26.3409 11.1957 25.7812 11.6223 25.7812 12.1485C25.7812 12.6747 26.3409 13.1013 27.0312 13.1013Z" fill="#7B4AE2"/>
</svg>
