<svg width="66" height="68" viewBox="0 0 66 68" fill="none" xmlns="http://www.w3.org/2000/svg">
<path fill-rule="evenodd" clip-rule="evenodd" d="M17.8961 8.85121C17.8961 8.85121 16.9004 1.65818 32.8454 1.65818C49.5087 1.65818 48.2213 10.3305 48.2213 10.3305V24.6611C48.2213 33.3281 39.7424 33.1855 39.7424 33.1855H24.6509C15.601 33.1855 15.8875 42.4495 15.8875 42.4495V50.2158H10.5726C10.5726 50.2158 1.66699 50.8093 1.66699 34.073C1.66699 17.3368 11.8702 18.5405 11.8702 18.5405H33.1298V16.3031H17.9139L17.8961 8.85121ZM27.1928 9.51689C27.1928 7.94208 25.9692 6.66926 24.4553 6.66926C22.9415 6.66926 21.7179 7.94208 21.7179 9.51689C21.7179 11.0917 22.9415 12.3645 24.4553 12.3645C25.9692 12.3645 27.1928 11.0917 27.1928 9.51689Z" fill="#7B4AE2" fill-opacity="0.6"/>
<path fill-rule="evenodd" clip-rule="evenodd" d="M48.2476 59.4627C48.2476 59.4627 49.2433 66.6557 33.2983 66.6557C16.635 66.6557 17.9224 57.9834 17.9224 57.9834V43.6528C17.9224 34.9858 26.4013 35.1284 26.4013 35.1284H41.4928C50.5427 35.1284 50.2562 25.8644 50.2562 25.8644V18.0981H55.5711C55.5711 18.0981 64.4767 17.5046 64.4767 34.2409C64.4767 50.9771 54.2735 49.7734 54.2735 49.7734H33.0139V52.0108H48.2298L48.2476 59.4627ZM38.9509 58.797C38.9509 60.3718 40.1745 61.6446 41.6884 61.6446C43.2022 61.6446 44.4258 60.3718 44.4258 58.797C44.4258 57.2222 43.2022 55.9494 41.6884 55.9494C40.1745 55.9494 38.9509 57.2222 38.9509 58.797Z" fill="#7B4AE2" fill-opacity="0.6"/>
</svg>
