<svg width="40" height="35" viewBox="0 0 40 35" fill="none" xmlns="http://www.w3.org/2000/svg">
<path d="M32.4428 11.2558C32.0335 11.1164 31.6093 10.9846 31.1726 10.8598C31.2444 10.5701 31.3103 10.284 31.3689 10.0028C32.3304 5.38594 31.7017 1.66652 29.5549 0.441929C27.4965 -0.732291 24.13 0.492022 20.7301 3.41892C20.4031 3.70037 20.0752 3.99836 19.7475 4.31065C19.5292 4.10403 19.3112 3.90435 19.0937 3.71336C15.5304 0.583731 11.9588 -0.73514 9.81417 0.492994C7.75767 1.67062 7.14865 5.16723 8.01417 9.54271C8.09775 9.96533 8.19545 10.3969 8.30593 10.8357C7.80044 10.9777 7.31244 11.129 6.84552 11.29C2.66797 12.7307 0 14.9887 0 17.3308C0 19.7498 2.86407 22.176 7.21531 23.6472C7.55869 23.7633 7.915 23.873 8.28219 23.9773C8.163 24.4519 8.05933 24.9169 7.97231 25.3705C7.14704 29.6701 7.79152 33.0841 9.84254 34.2543C11.9611 35.4627 15.5165 34.2206 18.9787 31.227C19.2523 30.9903 19.5269 30.7394 19.802 30.4764C20.1586 30.816 20.5146 31.1375 20.8688 31.439C24.2222 34.2936 27.5343 35.4463 29.5835 34.2728C31.6999 33.0609 32.3877 29.3934 31.4947 24.9314C31.4265 24.5906 31.3472 24.2424 31.258 23.8881C31.5077 23.8151 31.7528 23.7397 31.9918 23.6614C36.5154 22.1788 39.4585 19.7821 39.4585 17.3308C39.4585 14.9802 36.7045 12.707 32.4428 11.2558ZM31.4617 22.0786C31.2459 22.1493 31.0246 22.2176 30.799 22.2838C30.2996 20.7199 29.6256 19.057 28.8008 17.3389C29.5879 15.6618 30.2358 14.0201 30.7212 12.4664C31.1249 12.582 31.5166 12.7038 31.8941 12.8324C35.5456 14.0758 37.7729 15.9142 37.7729 17.3308C37.7729 18.8397 35.3674 20.7984 31.4617 22.0786ZM29.8411 25.2552C30.236 27.2283 30.2924 29.0121 30.0308 30.4067C29.7958 31.6597 29.3232 32.4952 28.7388 32.8298C27.4953 33.5418 24.836 32.6163 21.9681 30.175C21.6393 29.8952 21.3082 29.5964 20.9759 29.2801C22.0878 28.0773 23.199 26.6789 24.2835 25.1259C26.191 24.9585 27.9932 24.6847 29.6275 24.311C29.708 24.6322 29.7795 24.9472 29.8411 25.2552ZM13.4523 32.7068C12.2374 33.1312 11.2697 33.1433 10.6848 32.8097C9.44016 32.0996 8.92274 29.3585 9.62853 25.6815C9.70938 25.2604 9.8056 24.8279 9.9165 24.3857C11.5329 24.7393 13.3219 24.9937 15.234 25.147C16.3258 26.6667 17.4691 28.0635 18.6212 29.2866C18.3695 29.527 18.1188 29.7558 17.8694 29.9715C16.3385 31.2952 14.8043 32.2344 13.4523 32.7068ZM7.76048 22.0694C5.83644 21.4189 4.2475 20.5734 3.15836 19.6508C2.17969 18.8218 1.68559 17.9987 1.68559 17.3308C1.68559 15.9095 3.8277 14.0967 7.40038 12.8645C7.83387 12.715 8.28767 12.5741 8.7586 12.4417C9.25235 14.0305 9.90007 15.6916 10.6817 17.3714C9.88995 19.076 9.23304 20.7636 8.73444 22.371C8.39871 22.2756 8.07345 22.1751 7.76048 22.0694ZM9.66843 9.22249C8.92688 5.47369 9.41937 2.64572 10.6587 1.93609C11.9788 1.18012 14.8978 2.25797 17.9744 4.96026C18.1711 5.13297 18.3685 5.31375 18.5665 5.50078C17.4201 6.71849 16.2872 8.10483 15.2051 9.61552C13.3493 9.78567 11.5729 10.059 9.93968 10.425C9.83699 10.0164 9.74604 9.61496 9.66843 9.22249ZM26.6891 13.3799C26.2986 12.7128 25.8978 12.0614 25.4891 11.4279C26.7481 11.5853 27.9543 11.7943 29.0871 12.05C28.747 13.1282 28.3232 14.2554 27.8242 15.411C27.4663 14.7388 27.0877 14.0611 26.6891 13.3799ZM19.7481 6.69244C20.5256 7.52567 21.3042 8.45596 22.0701 9.46531C21.2983 9.42925 20.517 9.41049 19.7293 9.41049C18.9489 9.41049 18.1734 9.42884 17.4064 9.46427C18.1731 8.4643 18.9584 7.53526 19.7481 6.69244ZM12.7627 13.3914C12.3726 14.0604 12.0011 14.7345 11.6488 15.4098C11.1579 14.2582 10.738 13.1258 10.3949 12.0324C11.5208 11.7832 12.7213 11.5794 13.9723 11.425C13.5579 12.0644 13.1537 12.7205 12.7627 13.3913V13.3914ZM14.0083 23.3556C12.7158 23.2129 11.4972 23.0197 10.3717 22.7773C10.7202 21.6644 11.1494 20.5078 11.6507 19.3314C12.0039 20.0063 12.3769 20.6806 12.7693 21.3511H12.7694C13.1691 22.0341 13.5832 22.7031 14.0083 23.3556ZM19.7947 28.0867C18.9958 27.234 18.1989 26.2908 17.4206 25.2763C18.1761 25.3056 18.9464 25.3206 19.7293 25.3206C20.5335 25.3206 21.3286 25.3027 22.1112 25.2682C21.3428 26.301 20.567 27.2457 19.7947 28.0867ZM27.8403 19.2715C28.3677 20.4606 28.8123 21.6111 29.1653 22.7051C28.0212 22.9632 26.786 23.1712 25.4845 23.3257C25.8941 22.6836 26.2985 22.0211 26.6958 21.3396C27.0978 20.6501 27.4794 19.9596 27.8403 19.2715ZM25.2357 20.5066C24.6189 21.5645 23.9856 22.5744 23.3427 23.5277C22.1718 23.6105 20.9622 23.6532 19.7293 23.6532C18.5013 23.6532 17.3069 23.6154 16.1567 23.5416C15.4879 22.5758 14.8409 21.5629 14.2281 20.5157H14.2282C13.6169 19.4713 13.0543 18.4181 12.5446 17.3708C13.0542 16.3211 13.6153 15.2667 14.2231 14.2242L14.2229 14.2244C14.8323 13.1792 15.4736 12.1712 16.1362 11.2115C17.3097 11.1237 18.5131 11.0779 19.7292 11.0779H19.7293C20.9509 11.0779 22.1558 11.1241 23.3289 11.2126C23.9814 12.1653 24.6184 13.17 25.2301 14.2154C25.8488 15.2726 26.4172 16.3199 26.9312 17.3471C26.4187 18.392 25.8516 19.4499 25.2357 20.5066ZM28.713 1.88648C30.0343 2.64023 30.5482 5.6801 29.718 9.66631C29.665 9.92066 29.6054 10.1797 29.5406 10.4423C27.9036 10.0686 26.1259 9.7906 24.2647 9.61788C23.1805 8.09058 22.0569 6.7021 20.9292 5.50002C21.2324 5.21148 21.5352 4.93636 21.8367 4.67672C24.7498 2.16897 27.4725 1.17887 28.713 1.88648ZM19.7293 13.8454C21.6752 13.8454 23.2528 15.4058 23.2528 17.3308C23.2528 19.2557 21.6752 20.8162 19.7293 20.8162C17.7833 20.8162 16.2058 19.2557 16.2058 17.3308C16.2058 15.4058 17.7833 13.8454 19.7293 13.8454Z" fill="#7B4AE2" fill-opacity="0.5"/>
</svg>
