<svg width="36" height="33" viewBox="0 0 36 33" fill="none" xmlns="http://www.w3.org/2000/svg">
<path fill-rule="evenodd" clip-rule="evenodd" d="M32.485 0.682861H3.46018C1.97593 0.682861 0.772705 1.79037 0.772705 3.15655V29.8724C0.772705 31.2385 1.97593 32.346 3.46018 32.346H32.485C33.9692 32.346 35.1724 31.2385 35.1724 29.8724V3.15655C35.1724 1.79037 33.9692 0.682861 32.485 0.682861ZM20.9984 28.8946V25.4785C21.6716 25.9981 22.4029 26.3877 23.1923 26.6474C23.9816 26.9073 24.7786 27.0371 25.5834 27.0371C26.0554 27.0371 26.4676 26.9979 26.8196 26.9196C27.1717 26.8413 27.4658 26.7329 27.7018 26.5941C27.9378 26.4553 28.1139 26.2916 28.2299 26.1031C28.346 25.9145 28.404 25.7098 28.404 25.4892C28.404 25.1903 28.3112 24.9234 28.1255 24.6885C27.9398 24.4536 27.6863 24.2366 27.3652 24.0373C27.044 23.838 26.6629 23.646 26.2218 23.4609C25.7808 23.2758 25.3048 23.0873 24.7941 22.8951C23.494 22.3969 22.5249 21.7884 21.8865 21.0696C21.2479 20.3508 20.9288 19.4825 20.9288 18.4648C20.9288 17.6677 21.103 16.9827 21.4511 16.4098C21.7994 15.8369 22.2733 15.3654 22.8731 14.9952C23.4728 14.6252 24.1674 14.3529 24.9567 14.1787C25.746 14.0043 26.5816 13.9171 27.4638 13.9171C28.3305 13.9171 29.0986 13.9651 29.7679 14.0612C30.4372 14.1573 31.0544 14.305 31.6193 14.5042V17.6961C31.3408 17.5183 31.037 17.3617 30.7081 17.2265C30.3792 17.0912 30.0407 16.9791 29.6925 16.8902C29.3442 16.8012 28.998 16.7354 28.6536 16.6927C28.3093 16.65 27.9824 16.6286 27.6728 16.6286C27.2472 16.6286 26.8602 16.666 26.512 16.7407C26.1637 16.8155 25.8697 16.9204 25.6299 17.0557C25.39 17.1909 25.2042 17.3528 25.0726 17.5414C24.9411 17.73 24.8754 17.9416 24.8754 18.1765C24.8754 18.4328 24.9489 18.6622 25.0959 18.8651C25.2429 19.0679 25.4518 19.2601 25.7227 19.4416C25.9935 19.6231 26.3224 19.801 26.7093 19.9754C27.0963 20.1498 27.5334 20.3294 28.0209 20.5145C28.6865 20.7707 29.2843 21.0429 29.8144 21.3311C30.3444 21.6194 30.7991 21.9449 31.1782 22.3079C31.5574 22.6708 31.8476 23.0854 32.0488 23.5516C32.2499 24.0178 32.3506 24.5605 32.3506 25.1797C32.3506 26.0337 32.1746 26.7507 31.8225 27.3306C31.4703 27.9107 30.9925 28.3805 30.3889 28.7399C29.7854 29.0992 29.083 29.3572 28.2822 29.5138C27.4813 29.6704 26.6358 29.7487 25.746 29.7487C24.8328 29.7487 23.9642 29.6776 23.1401 29.5352C22.3159 29.3928 21.602 29.1794 20.9984 28.8946ZM19.5851 16.9773H14.8124V29.5013H11.0314V16.9773H6.28204V14.1645H19.5851V16.9773Z" fill="#7B4AE2" fill-opacity="0.5"/>
</svg>
