<svg width="26" height="25" viewBox="0 0 26 25" fill="none" xmlns="http://www.w3.org/2000/svg">
<path d="M4.61097 16.7971C3.40124 14.89 2.9781 12.6359 3.42097 10.458C3.86384 8.28003 5.14227 6.32802 7.01625 4.96841C8.89024 3.60879 11.2309 2.93508 13.5988 3.07374C15.9667 3.2124 18.1991 4.1539 19.8767 5.7215C21.5544 7.28909 22.562 9.37496 22.7104 11.5875C22.8588 13.8001 22.1378 15.9872 20.6827 17.7382C19.2276 19.4893 17.1386 20.6838 14.8077 21.0977C12.4768 21.5115 10.0645 21.1161 8.02347 19.9857V19.9857L4.65159 20.8778C4.51344 20.9155 4.36697 20.9179 4.22753 20.8845C4.08808 20.8512 3.9608 20.7834 3.85902 20.6883C3.75724 20.5932 3.68472 20.4743 3.64905 20.344C3.61338 20.2137 3.61588 20.0769 3.65628 19.9478L4.61097 16.7971Z" stroke="#7B4AE2" stroke-opacity="0.5" stroke-linecap="round" stroke-linejoin="round"/>
<path d="M15.4477 17.4616C14.3786 17.4641 13.3195 17.2691 12.3313 16.888C11.3431 16.5069 10.4452 15.9471 9.68928 15.2407C8.93333 14.5344 8.3342 13.6954 7.92632 12.772C7.51844 11.8486 7.30985 10.8591 7.31253 9.86011C7.31521 9.15703 7.61601 8.4836 8.14902 7.98734C8.68204 7.49107 9.40382 7.21242 10.1563 7.21242V7.21242C10.2804 7.2115 10.4025 7.24186 10.5098 7.30031C10.617 7.35876 10.7054 7.44314 10.7657 7.54457L11.9539 9.48052C12.0246 9.5982 12.0609 9.7312 12.0591 9.86613C12.0573 10.0011 12.0175 10.1332 11.9438 10.2492L10.9891 11.7391C11.4781 12.7556 12.3489 13.5693 13.4367 14.0262L15.0313 13.1341C15.1554 13.0652 15.2968 13.0281 15.4412 13.0264C15.5857 13.0247 15.728 13.0586 15.8539 13.1247L17.9258 14.235C18.0344 14.2913 18.1247 14.3739 18.1872 14.4741C18.2498 14.5743 18.2823 14.6884 18.2813 14.8044C18.2786 15.5067 17.9795 16.1797 17.449 16.6772C16.9185 17.1747 16.1993 17.4566 15.4477 17.4616V17.4616Z" stroke="#7B4AE2" stroke-opacity="0.5" stroke-linecap="round" stroke-linejoin="round"/>
</svg>
